<?xml version="1.0" encoding="UTF-8" standalone="no"?>
<!-- Created with Inkscape (http://www.inkscape.org/) -->

<svg
   xmlns:dc="http://purl.org/dc/elements/1.1/"
   xmlns:cc="http://creativecommons.org/ns#"
   xmlns:rdf="http://www.w3.org/1999/02/22-rdf-syntax-ns#"
   xmlns:svg="http://www.w3.org/2000/svg"
   xmlns="http://www.w3.org/2000/svg"
   xmlns:sodipodi="http://sodipodi.sourceforge.net/DTD/sodipodi-0.dtd"
   xmlns:inkscape="http://www.inkscape.org/namespaces/inkscape"
   id="svg3355"
   version="1.1"
   inkscape:version="0.91 r13725"
   xml:space="preserve"
   width="766.25"
   height="1063.75"
   viewBox="0 0 766.25 1063.75"
   sodipodi:docname="front.svg"><metadata
     id="metadata3361"><rdf:RDF><cc:Work
         rdf:about=""><dc:format>image/svg+xml</dc:format><dc:type
           rdf:resource="http://purl.org/dc/dcmitype/StillImage" /><dc:title></dc:title></cc:Work></rdf:RDF></metadata><defs
     id="defs3359"><clipPath
       clipPathUnits="userSpaceOnUse"
       id="clipPath3371"><path
         d="M 0,8503.95 0,0 l 6122.84,0 0,8503.95 -6122.84,0 z"
         id="path3373"
         inkscape:connector-curvature="0" /></clipPath><clipPath
       id="clipPath4611"
       clipPathUnits="userSpaceOnUse"><path
         inkscape:connector-curvature="0"
         id="path4613"
         d="m 0,142.696 275.333,0 L 275.333,0 0,0 0,142.696 Z" /></clipPath><clipPath
       id="clipPath4951"
       clipPathUnits="userSpaceOnUse"><path
         inkscape:connector-curvature="0"
         id="path4953"
         d="m 0,63.613 220.275,0 L 220.275,0 0,0 0,63.613 Z" /></clipPath><clipPath
       id="clipPath5074"
       clipPathUnits="userSpaceOnUse"><path
         inkscape:connector-curvature="0"
         id="path5076"
         d="m 0,142.696 275.333,0 L 275.333,0 0,0 0,142.696 Z" /></clipPath></defs><sodipodi:namedview
     pagecolor="#ffffff"
     bordercolor="#666666"
     borderopacity="1"
     objecttolerance="10"
     gridtolerance="10"
     guidetolerance="10"
     inkscape:pageopacity="0"
     inkscape:pageshadow="2"
     inkscape:window-width="1440"
     inkscape:window-height="851"
     id="namedview3357"
     showgrid="false"
     inkscape:zoom="1.1098032"
     inkscape:cx="273.80154"
     inkscape:cy="51.899177"
     inkscape:window-x="0"
     inkscape:window-y="1"
     inkscape:window-maximized="1"
     inkscape:current-layer="g3369" /><g
     id="g3363"
     inkscape:groupmode="layer"
     inkscape:label="front"
     transform="matrix(1.25,0,0,-1.25,0,1063.75)"><g
       id="g3365"
       transform="scale(0.1,0.1)"><g
         id="g3367"><g
           inkscape:groupmode="layer"
           id="layer1"
           inkscape:label="BG"><rect
             style="fill:#ffffff;fill-opacity:1;stroke-width:0;stroke-miterlimit:4;stroke-dasharray:none"
             id="rect4996"
             width="6156.0464"
             height="973.14545"
             x="-28.833941"
             y="-951.52002"
             transform="scale(1,-1)" /></g><g
           id="g3369"
           clip-path="url(#clipPath3371)"><path
             d="m 0,184.262 6122.82,0"
             style="fill:none;stroke:#ffffff;stroke-width:5;stroke-linecap:butt;stroke-linejoin:miter;stroke-miterlimit:4;stroke-dasharray:none;stroke-opacity:1"
             id="path3379"
             inkscape:connector-curvature="0" /><path
             d="m 0,949.609 6122.82,0"
             style="fill:none;stroke:#231f20;stroke-width:2.5;stroke-linecap:butt;stroke-linejoin:miter;stroke-miterlimit:4;stroke-dasharray:none;stroke-opacity:1"
             id="path3453"
             inkscape:connector-curvature="0" /><g
             transform="matrix(10,0,0,10,-203.80933,-293.07292)"
             inkscape:label="hovedlogo_eng"
             id="g5068"><g
               id="g5070"><g
                 clip-path="url(#clipPath5074)"
                 id="g5072"><g
                   transform="translate(109.0941,107.2445)"
                   id="g5078"><path
                     inkscape:connector-curvature="0"
                     id="path5080"
                     style="fill:#231f20;fill-opacity:1;fill-rule:nonzero;stroke:none"
                     d="m 0,0 0,-7.281 -0.967,0 c -0.097,1.127 -0.226,2.545 -1.225,4.221 -1.159,1.965 -2.739,2.062 -4.285,2.126 l -1.805,0 -0.031,-2.9 0,-14.854 0.031,-3.286 3.481,0 0,-0.773 -10.568,0 0,0.773 3.479,0 0.033,3.286 0,14.854 -0.033,2.9 -1.483,0 c -1.868,-0.032 -3.285,-0.032 -4.639,-2.19 -1.063,-1.708 -1.16,-3.061 -1.224,-4.157 l -0.934,0 0,7.281 L 0,0 Z" /></g><g
                   transform="translate(118.2446,107.2445)"
                   id="g5082"><path
                     inkscape:connector-curvature="0"
                     id="path5084"
                     style="fill:#231f20;fill-opacity:1;fill-rule:nonzero;stroke:none"
                     d="m 0,0 11.148,-16.207 0,12.469 -0.031,2.965 -3.352,0 0,0.773 7.185,0 0,-0.773 -2.771,0 -0.033,-2.965 0,-19.301 -0.515,-0.161 -14.951,21.75 0,-17.464 0.033,-3.06 3.449,0 0,-0.773 -7.445,0 0,0.773 2.966,0 0.03,3.06 0,15.176 -0.03,2.965 -2.966,0 0,0.773 L 0,0 Z" /></g><g
                   transform="translate(145.7056,107.2445)"
                   id="g5086"><path
                     inkscape:connector-curvature="0"
                     id="path5088"
                     style="fill:#231f20;fill-opacity:1;fill-rule:nonzero;stroke:none"
                     d="m 0,0 0,-0.773 -3.191,0 -0.031,-2.738 0,-12.309 c 0.031,-3.19 0.097,-6.219 6.09,-6.219 6.057,0 6.443,2.642 6.539,5.509 l 0,13.019 -0.031,2.738 -3.253,0 0,0.773 7.119,0 0,-0.773 -2.802,0 -0.032,-2.738 0,-11.729 c -0.033,-4.221 -0.065,-7.83 -8.41,-7.83 -1.191,0 -4.028,0.128 -5.831,0.87 -2.868,1.225 -2.932,3.738 -2.965,6.831 l 0,11.858 -0.033,2.738 -2.771,0 0,0.773 L 0,0 Z" /></g><path
                   inkscape:connector-curvature="0"
                   id="path5090"
                   style="fill:#214ca1;fill-opacity:1;fill-rule:nonzero;stroke:none"
                   d="m 53.078,90.097 -11.448,0 0,11.451 11.448,0 0,-11.451 z m 0,17.171 -11.448,0 c -3.16,0 -5.722,-2.562 -5.722,-5.72 l 0,-11.451 c 0,-3.159 2.562,-5.72 5.722,-5.72 l 11.448,0 c 3.16,0 5.721,2.561 5.721,5.72 l 0,11.451 c 0,3.158 -2.561,5.72 -5.721,5.72" /><g
                   transform="translate(47.3159,100.5564)"
                   id="g5092"><path
                     inkscape:connector-curvature="0"
                     id="path5094"
                     style="fill:#214ca1;fill-opacity:1;fill-rule:nonzero;stroke:none"
                     d="m 0,0 c -2.594,0 -4.695,-2.103 -4.695,-4.696 0,-2.594 2.101,-4.695 4.695,-4.695 2.593,0 4.695,2.101 4.695,4.695 C 4.695,-2.103 2.593,0 0,0" /></g><g
                   transform="translate(71.9106,107.2445)"
                   id="g5096"><path
                     inkscape:connector-curvature="0"
                     id="path5098"
                     style="fill:#231f20;fill-opacity:1;fill-rule:nonzero;stroke:none"
                     d="m 0,0 11.148,-16.207 0,12.469 -0.032,2.965 -3.35,0 0,0.773 7.185,0 0,-0.773 -2.772,0 -0.032,-2.965 0,-19.301 -0.515,-0.161 -14.951,21.75 0,-17.464 0.032,-3.06 3.447,0 0,-0.773 -7.442,0 0,0.773 2.964,0 0.032,3.06 0,15.176 -0.032,2.965 -2.964,0 0,0.773 L 0,0 Z" /></g><g
                   transform="translate(66.434,72.1961)"
                   id="g5100"><path
                     inkscape:connector-curvature="0"
                     id="path5102"
                     style="fill:#231f20;fill-opacity:1;fill-rule:nonzero;stroke:none"
                     d="m 0,0 -1.357,0 0,0.369 3.378,0 5.224,-7.51 0.029,0 0,7.141 -1.593,0 0,0.369 3.393,0 0,-0.369 -1.357,0 0,-10.284 -0.28,-0.073 -6.965,10.018 -0.03,0 0,-9.473 1.623,0 0,-0.369 -3.422,0 0,0.369 1.357,0 L 0,0 Z" /></g><g
                   transform="translate(80.1283,62.2069)"
                   id="g5104"><path
                     inkscape:connector-curvature="0"
                     id="path5106"
                     style="fill:#231f20;fill-opacity:1;fill-rule:nonzero;stroke:none"
                     d="M 0,0 C 1.741,0 1.756,1.874 1.756,3.424 1.756,4.973 1.741,6.847 0,6.847 -1.741,6.847 -1.756,4.973 -1.756,3.424 -1.756,1.874 -1.741,0 0,0 m 0,7.216 c 2.626,0 3.438,-2.302 3.438,-3.792 0,-1.49 -0.812,-3.792 -3.438,-3.792 -2.626,0 -3.438,2.302 -3.438,3.792 0,1.49 0.812,3.792 3.438,3.792" /></g><g
                   transform="translate(85.8842,68.8768)"
                   id="g5108"><path
                     inkscape:connector-curvature="0"
                     id="path5110"
                     style="fill:#231f20;fill-opacity:1;fill-rule:nonzero;stroke:none"
                     d="m 0,0 -1.269,0 0,0.369 2.774,0 0,-1.697 0.029,0 c 0.31,0.855 0.945,1.874 2.066,1.874 0.871,0 1.343,-0.561 1.343,-1.417 0,-0.59 -0.236,-0.988 -0.768,-0.988 -0.398,0 -0.737,0.295 -0.737,0.753 0,0.206 0.074,0.56 0.074,0.752 0,0.207 -0.148,0.369 -0.369,0.369 -0.768,0 -1.638,-1.682 -1.638,-3.276 l 0,-3.231 1.224,0 0,-0.369 -3.998,0 0,0.369 1.269,0 L 0,0 Z" /></g><g
                   transform="translate(90.7831,69.2459)"
                   id="g5112"><path
                     inkscape:connector-curvature="0"
                     id="path5114"
                     style="fill:#231f20;fill-opacity:1;fill-rule:nonzero;stroke:none"
                     d="m 0,0 4.043,0 0,-0.369 -1.239,0 1.637,-4.796 0.03,0 1.579,4.796 -1.24,0 0,0.369 4.161,0 0,-0.369 -1.239,0 1.505,-4.707 0.029,0 1.668,4.707 -1.24,0 0,0.369 2.863,0 0,-0.369 -1.151,0 -2.523,-6.98 -0.384,0 -2.169,6.374 -0.03,0 -2.154,-6.344 -0.398,0 -2.597,6.95 L 0,-0.369 0,0 Z" /></g><g
                   transform="translate(108.8456,66.5457)"
                   id="g5116"><path
                     inkscape:connector-curvature="0"
                     id="path5118"
                     style="fill:#231f20;fill-opacity:1;fill-rule:nonzero;stroke:none"
                     d="M 0,0 C 0,1.062 -0.059,2.508 -1.564,2.508 -2.833,2.508 -3.158,0.914 -3.158,0 L 0,0 Z m -3.158,-0.458 0,-0.118 c 0,-2.066 0.281,-3.674 2.184,-3.674 1.343,0 2.021,0.826 2.405,1.889 L 1.756,-2.479 C 1.121,-4.19 0.118,-4.707 -1.505,-4.707 c -2.214,0 -3.335,1.711 -3.335,3.792 0,1.992 1.284,3.792 3.438,3.792 1.889,0 3.173,-1.357 3.173,-3.335 l -4.929,0 z" /></g><g
                   transform="translate(115.5448,65.1727)"
                   id="g5120"><path
                     inkscape:connector-curvature="0"
                     id="path5122"
                     style="fill:#231f20;fill-opacity:1;fill-rule:nonzero;stroke:none"
                     d="m 0,0 c 1.048,0 1.136,1.107 1.136,1.889 0,0.841 -0.014,1.992 -1.077,1.992 -1.077,0 -1.165,-0.885 -1.165,-1.8 C -1.106,1.299 -1.062,0 0,0 m -2.228,-4.411 c 0,-1.195 1.062,-1.535 2.567,-1.535 1.358,0 2.819,0.531 2.819,1.668 0,1.165 -0.738,1.342 -2.214,1.342 -2.065,0 -3.172,-0.103 -3.172,-1.475 M 1.933,3.645 C 2.184,3.984 2.508,4.25 3.025,4.25 3.468,4.25 3.91,3.955 3.91,3.395 3.91,3.025 3.763,2.745 3.423,2.745 2.641,2.745 3.143,3.719 2.626,3.719 2.45,3.719 2.213,3.453 2.184,3.276 2.435,2.863 2.553,2.479 2.553,1.992 c 0,-1.446 -1.107,-2.36 -2.509,-2.36 -0.605,0 -1.21,0.162 -1.711,0.457 -0.428,-0.029 -1.048,-0.428 -1.048,-0.93 0,-0.546 0.458,-0.649 1.284,-0.649 0.856,0 1.697,0.059 2.567,0.059 1.535,0 2.553,-0.59 2.553,-2.316 0,-2.036 -1.83,-2.656 -3.526,-2.656 -1.269,0 -3.454,0.324 -3.454,2.065 0,0.857 0.724,1.284 1.432,1.417 l 0,-0.015 0,0.03 c -0.9,0.206 -1.475,0.855 -1.475,1.696 0,0.871 0.605,1.402 1.327,1.668 -0.398,0.531 -0.516,0.915 -0.516,1.563 0,1.388 1.166,2.229 2.42,2.229 0.782,0 1.52,-0.147 2.036,-0.605" /></g><g
                   transform="translate(122.2157,72.4325)"
                   id="g5124"><path
                     inkscape:connector-curvature="0"
                     id="path5126"
                     style="fill:#231f20;fill-opacity:1;fill-rule:nonzero;stroke:none"
                     d="m 0,0 c 0.472,0 0.885,-0.398 0.885,-0.885 0,-0.472 -0.413,-0.886 -0.885,-0.886 -0.472,0 -0.886,0.414 -0.886,0.886 C -0.886,-0.398 -0.472,0 0,0 m -0.753,-3.556 -1.268,0 0,0.369 2.773,0 0,-6.861 1.269,0 0,-0.369 -4.042,0 0,0.369 1.268,0 0,6.492 z" /></g><g
                   transform="translate(128.1918,65.8817)"
                   id="g5128"><path
                     inkscape:connector-curvature="0"
                     id="path5130"
                     style="fill:#231f20;fill-opacity:1;fill-rule:nonzero;stroke:none"
                     d="m 0,0 c -0.885,-0.266 -1.166,-0.591 -1.166,-1.889 0,-0.9 0.163,-1.697 0.959,-1.697 1.284,0 1.742,1.623 1.742,2.627 l 0,1.416 L 0,0 Z M -0.088,0.398 C 0.517,0.546 0.974,0.679 1.535,0.87 l 0,0.62 c 0,1.018 -0.178,1.682 -1.151,1.682 -0.738,0 -1.24,-0.221 -1.24,-1.195 0,-0.576 -0.221,-0.767 -0.738,-0.767 -0.383,0 -0.678,0.102 -0.678,0.546 0,1.416 1.431,1.785 2.611,1.785 2.258,0 2.701,-0.93 2.701,-2.154 l 0,-3.748 c 0,-1.121 0.339,-1.136 1.165,-1.136 l 0,-0.369 -1.121,0 c -0.827,0 -1.402,0.074 -1.638,0.959 -0.575,-0.885 -1.299,-1.136 -2.272,-1.136 -1.535,0 -2.022,0.797 -2.022,2.14 0,1.224 0.635,1.799 1.874,2.094 l 0.886,0.207 z" /></g><g
                   transform="translate(134.2723,62.3846)"
                   id="g5132"><path
                     inkscape:connector-curvature="0"
                     id="path5134"
                     style="fill:#231f20;fill-opacity:1;fill-rule:nonzero;stroke:none"
                     d="m 0,0 0,6.492 -1.269,0 0,0.369 2.774,0 0,-1.387 0.029,0 c 0.458,1.004 1.343,1.564 2.553,1.564 1.446,0 2.169,-0.605 2.169,-2.081 l 0,-4.957 1.166,0 0,-0.369 -3.837,0 0,0.369 1.166,0 0,4.884 c 0,0.811 -0.147,1.623 -1.181,1.623 -1.372,0 -2.065,-1.299 -2.065,-2.671 l 0,-3.836 1.165,0 0,-0.369 -3.939,0 0,0.369 L 0,0 Z" /></g><g
                   transform="translate(147.8929,72.1961)"
                   id="g5136"><path
                     inkscape:connector-curvature="0"
                     id="path5138"
                     style="fill:#231f20;fill-opacity:1;fill-rule:nonzero;stroke:none"
                     d="m 0,0 -1.357,0 0,0.369 4.5,0 0,-0.369 -1.461,0 0,-7.008 c 0,-1.904 0.413,-2.804 2.803,-2.804 2.789,0 3.07,1.151 3.07,2.921 l 0,6.891 -1.594,0 0,0.369 3.276,0 0,-0.369 -1.24,0 0,-7.053 C 7.997,-9.074 7.496,-10.27 4.028,-10.27 0.472,-10.27 0,-9.178 0,-7.2 L 0,0 Z" /></g><g
                   transform="translate(159.1532,62.3846)"
                   id="g5140"><path
                     inkscape:connector-curvature="0"
                     id="path5142"
                     style="fill:#231f20;fill-opacity:1;fill-rule:nonzero;stroke:none"
                     d="m 0,0 0,6.492 -1.269,0 0,0.369 2.774,0 0,-1.387 0.029,0 c 0.458,1.004 1.343,1.564 2.553,1.564 1.446,0 2.169,-0.605 2.169,-2.081 l 0,-4.957 1.166,0 0,-0.369 -3.837,0 0,0.369 1.166,0 0,4.884 c 0,0.811 -0.147,1.623 -1.181,1.623 -1.372,0 -2.065,-1.299 -2.065,-2.671 l 0,-3.836 1.165,0 0,-0.369 -3.939,0 0,0.369 L 0,0 Z" /></g><g
                   transform="translate(169.2616,72.4325)"
                   id="g5144"><path
                     inkscape:connector-curvature="0"
                     id="path5146"
                     style="fill:#231f20;fill-opacity:1;fill-rule:nonzero;stroke:none"
                     d="m 0,0 c 0.472,0 0.885,-0.398 0.885,-0.885 0,-0.472 -0.413,-0.886 -0.885,-0.886 -0.472,0 -0.886,0.414 -0.886,0.886 C -0.886,-0.398 -0.472,0 0,0 m -0.753,-3.556 -1.268,0 0,0.369 2.773,0 0,-6.861 1.269,0 0,-0.369 -4.042,0 0,0.369 1.268,0 0,6.492 z" /></g><g
                   transform="translate(171.5048,69.2459)"
                   id="g5148"><path
                     inkscape:connector-curvature="0"
                     id="path5150"
                     style="fill:#231f20;fill-opacity:1;fill-rule:nonzero;stroke:none"
                     d="m 0,0 4.161,0 0,-0.369 -1.343,0 1.815,-4.929 1.904,4.929 -1.432,0 0,0.369 2.996,0 0,-0.369 -1.063,0 -2.759,-6.95 -0.413,0 -2.745,6.95 L 0,-0.369 0,0 Z" /></g><g
                   transform="translate(185.1547,66.5457)"
                   id="g5152"><path
                     inkscape:connector-curvature="0"
                     id="path5154"
                     style="fill:#231f20;fill-opacity:1;fill-rule:nonzero;stroke:none"
                     d="M 0,0 C 0,1.062 -0.059,2.508 -1.564,2.508 -2.833,2.508 -3.158,0.914 -3.158,0 L 0,0 Z m -3.158,-0.458 0,-0.118 c 0,-2.066 0.281,-3.674 2.184,-3.674 1.343,0 2.021,0.826 2.405,1.889 L 1.756,-2.479 C 1.121,-4.19 0.118,-4.707 -1.505,-4.707 c -2.214,0 -3.335,1.711 -3.335,3.792 0,1.992 1.284,3.792 3.438,3.792 1.889,0 3.173,-1.357 3.173,-3.335 l -4.929,0 z" /></g><g
                   transform="translate(189.243,68.8768)"
                   id="g5156"><path
                     inkscape:connector-curvature="0"
                     id="path5158"
                     style="fill:#231f20;fill-opacity:1;fill-rule:nonzero;stroke:none"
                     d="m 0,0 -1.269,0 0,0.369 2.774,0 0,-1.697 0.029,0 c 0.31,0.855 0.945,1.874 2.066,1.874 0.871,0 1.343,-0.561 1.343,-1.417 0,-0.59 -0.236,-0.988 -0.768,-0.988 -0.398,0 -0.737,0.295 -0.737,0.753 0,0.206 0.074,0.56 0.074,0.752 0,0.207 -0.148,0.369 -0.369,0.369 -0.768,0 -1.638,-1.682 -1.638,-3.276 l 0,-3.231 1.224,0 0,-0.369 -3.998,0 0,0.369 1.269,0 L 0,0 Z" /></g><g
                   transform="translate(199.8524,67.0467)"
                   id="g5160"><path
                     inkscape:connector-curvature="0"
                     id="path5162"
                     style="fill:#231f20;fill-opacity:1;fill-rule:nonzero;stroke:none"
                     d="m 0,0 -0.354,0 c -0.177,1.004 -0.561,1.919 -1.859,1.919 -0.664,0 -1.225,-0.311 -1.225,-1.019 0,-1.83 4.043,-0.84 4.043,-3.866 0,-1.505 -1.476,-2.242 -2.789,-2.242 -0.871,0 -1.697,0.162 -2.523,0.457 l 0,2.405 0.442,0 c 0.015,-1.372 0.664,-2.494 2.111,-2.494 0.752,0 1.608,0.444 1.608,1.299 0,1.918 -3.954,1.181 -3.954,3.719 0,1.43 1.091,2.198 2.36,2.198 0.783,0 1.461,-0.236 2.14,-0.457 L 0,0 Z" /></g><g
                   transform="translate(203.4388,72.4325)"
                   id="g5164"><path
                     inkscape:connector-curvature="0"
                     id="path5166"
                     style="fill:#231f20;fill-opacity:1;fill-rule:nonzero;stroke:none"
                     d="m 0,0 c 0.472,0 0.885,-0.398 0.885,-0.885 0,-0.472 -0.413,-0.886 -0.885,-0.886 -0.472,0 -0.886,0.414 -0.886,0.886 C -0.886,-0.398 -0.472,0 0,0 m -0.753,-3.556 -1.268,0 0,0.369 2.773,0 0,-6.861 1.269,0 0,-0.369 -4.042,0 0,0.369 1.268,0 0,6.492 z" /></g><g
                   transform="translate(206.0511,69.2459)"
                   id="g5168"><path
                     inkscape:connector-curvature="0"
                     id="path5170"
                     style="fill:#231f20;fill-opacity:1;fill-rule:nonzero;stroke:none"
                     d="m 0,0 1.018,0 0,1.962 1.505,0 0,-1.962 1.638,0 0,-0.369 -1.638,0 0,-5.135 c 0,-0.871 0.177,-1.284 0.782,-1.284 0.561,0 0.797,0.413 1.033,0.886 L 4.677,-6.05 4.545,-6.315 C 4.25,-6.847 3.748,-7.319 2.686,-7.319 c -1.535,0 -1.668,0.871 -1.668,1.815 l 0,5.135 L 0,-0.369 0,0 Z" /></g><g
                   transform="translate(210.6259,69.2459)"
                   id="g5172"><path
                     inkscape:connector-curvature="0"
                     id="path5174"
                     style="fill:#231f20;fill-opacity:1;fill-rule:nonzero;stroke:none"
                     d="m 0,0 3.955,0 0,-0.369 -1.24,0 1.948,-4.796 0.029,0 1.476,4.796 -1.24,0 0,0.369 2.848,0 0,-0.369 -1.151,0 -2.302,-7.451 c -0.546,-1.786 -1.106,-2.657 -2.39,-2.657 -0.885,0 -1.372,0.605 -1.372,1.24 0,0.516 0.236,0.826 0.678,0.826 0.547,0 0.65,-0.384 0.65,-0.767 0,-0.384 0.059,-0.767 0.502,-0.767 0.442,0 0.959,0.398 1.357,1.814 L 4.014,-7.245 1.062,-0.369 0,-0.369 0,0 Z" /></g><g
                   transform="translate(226.681,62.2069)"
                   id="g5176"><path
                     inkscape:connector-curvature="0"
                     id="path5178"
                     style="fill:#231f20;fill-opacity:1;fill-rule:nonzero;stroke:none"
                     d="M 0,0 C 1.741,0 1.756,1.874 1.756,3.424 1.756,4.973 1.741,6.847 0,6.847 -1.741,6.847 -1.756,4.973 -1.756,3.424 -1.756,1.874 -1.741,0 0,0 m 0,7.216 c 2.626,0 3.438,-2.302 3.438,-3.792 0,-1.49 -0.812,-3.792 -3.438,-3.792 -2.626,0 -3.438,2.302 -3.438,3.792 0,1.49 0.812,3.792 3.438,3.792" /></g><g
                   transform="translate(231.1971,68.8768)"
                   id="g5180"><path
                     inkscape:connector-curvature="0"
                     id="path5182"
                     style="fill:#231f20;fill-opacity:1;fill-rule:nonzero;stroke:none"
                     d="m 0,0 0,0.369 1.24,0 0,1.476 c 0,1.607 1.224,2.021 2.331,2.021 0.885,0 2.199,-0.281 2.199,-1.431 0,-0.399 -0.251,-0.621 -0.635,-0.621 -0.487,0 -0.694,0.222 -0.694,0.694 0,0.635 -0.206,0.989 -0.782,0.989 -0.796,0 -0.914,-0.591 -0.914,-1.476 l 0,-1.652 1.416,0 0,-0.369 -1.416,0 0,-6.492 1.195,0 0,-0.369 -3.94,0 0,0.369 1.24,0 L 1.24,0 0,0 Z" /></g><g
                   transform="translate(65.3861,47.4461)"
                   id="g5184"><path
                     inkscape:connector-curvature="0"
                     id="path5186"
                     style="fill:#231f20;fill-opacity:1;fill-rule:nonzero;stroke:none"
                     d="m 0,0 0.413,0 c 0.104,-1.697 1.343,-3.188 3.055,-3.188 1.224,0 2.434,0.635 2.434,2.051 0,2.848 -5.725,1.83 -5.725,5.475 0,1.874 1.594,2.922 3.335,2.922 0.87,0 1.933,-0.266 2.73,-0.635 l 0.088,-2.316 -0.398,0 C 5.578,5.99 4.722,6.802 3.35,6.802 2.317,6.802 1.328,6.241 1.328,5.075 c 0,-2.64 5.637,-1.549 5.637,-5.518 0,-2.022 -1.86,-3.202 -3.689,-3.202 -1.092,0 -2.066,0.163 -3.172,0.665 L 0,0 Z" /></g><g
                   transform="translate(80.349,46.2655)"
                   id="g5188"><path
                     inkscape:connector-curvature="0"
                     id="path5190"
                     style="fill:#231f20;fill-opacity:1;fill-rule:nonzero;stroke:none"
                     d="m 0,0 c -0.693,-1.947 -1.874,-2.464 -3.216,-2.464 -2.155,0 -3.438,1.8 -3.438,3.792 0,2.095 1.475,3.792 3.541,3.792 1.372,0 2.906,-0.811 2.906,-2.081 0,-0.59 -0.339,-0.811 -0.781,-0.811 -0.532,0 -0.723,0.369 -0.723,0.767 0,0.207 0.029,0.34 0.029,0.473 0,0.811 -0.502,1.283 -1.416,1.283 -1.461,0 -1.874,-1.49 -1.874,-3.423 0,-1.166 0.118,-3.335 2.183,-3.335 1.343,0 2.022,0.826 2.465,2.125 L 0,0 Z" /></g><g
                   transform="translate(82.8886,54.3953)"
                   id="g5192"><path
                     inkscape:connector-curvature="0"
                     id="path5194"
                     style="fill:#231f20;fill-opacity:1;fill-rule:nonzero;stroke:none"
                     d="m 0,0 c 0.472,0 0.885,-0.398 0.885,-0.885 0,-0.472 -0.413,-0.886 -0.885,-0.886 -0.472,0 -0.886,0.414 -0.886,0.886 C -0.886,-0.398 -0.472,0 0,0 m -0.753,-3.556 -1.268,0 0,0.369 2.773,0 0,-6.861 1.269,0 0,-0.369 -4.042,0 0,0.369 1.268,0 0,6.492 z" /></g><g
                   transform="translate(90.8568,48.5086)"
                   id="g5196"><path
                     inkscape:connector-curvature="0"
                     id="path5198"
                     style="fill:#231f20;fill-opacity:1;fill-rule:nonzero;stroke:none"
                     d="M 0,0 C 0,1.062 -0.059,2.508 -1.564,2.508 -2.833,2.508 -3.158,0.914 -3.158,0 L 0,0 Z m -3.158,-0.458 0,-0.118 c 0,-2.066 0.281,-3.674 2.184,-3.674 1.343,0 2.021,0.826 2.405,1.889 L 1.756,-2.479 C 1.121,-4.19 0.118,-4.707 -1.505,-4.707 c -2.214,0 -3.335,1.711 -3.335,3.792 0,1.992 1.284,3.792 3.438,3.792 1.889,0 3.173,-1.357 3.173,-3.335 l -4.929,0 z" /></g><g
                   transform="translate(94.9452,44.3475)"
                   id="g5200"><path
                     inkscape:connector-curvature="0"
                     id="path5202"
                     style="fill:#231f20;fill-opacity:1;fill-rule:nonzero;stroke:none"
                     d="m 0,0 0,6.492 -1.269,0 0,0.369 2.774,0 0,-1.387 0.029,0 c 0.458,1.004 1.343,1.564 2.553,1.564 1.446,0 2.169,-0.605 2.169,-2.081 l 0,-4.957 1.166,0 0,-0.369 -3.837,0 0,0.369 1.166,0 0,4.884 c 0,0.811 -0.147,1.623 -1.181,1.623 -1.372,0 -2.065,-1.299 -2.065,-2.671 l 0,-3.836 1.165,0 0,-0.369 -3.939,0 0,0.369 L 0,0 Z" /></g><g
                   transform="translate(110.1732,46.2655)"
                   id="g5204"><path
                     inkscape:connector-curvature="0"
                     id="path5206"
                     style="fill:#231f20;fill-opacity:1;fill-rule:nonzero;stroke:none"
                     d="m 0,0 c -0.693,-1.947 -1.874,-2.464 -3.216,-2.464 -2.155,0 -3.438,1.8 -3.438,3.792 0,2.095 1.475,3.792 3.541,3.792 1.372,0 2.906,-0.811 2.906,-2.081 0,-0.59 -0.339,-0.811 -0.781,-0.811 -0.532,0 -0.723,0.369 -0.723,0.767 0,0.207 0.029,0.34 0.029,0.473 0,0.811 -0.502,1.283 -1.416,1.283 -1.461,0 -1.874,-1.49 -1.874,-3.423 0,-1.166 0.118,-3.335 2.183,-3.335 1.343,0 2.022,0.826 2.465,2.125 L 0,0 Z" /></g><g
                   transform="translate(116.018,48.5086)"
                   id="g5208"><path
                     inkscape:connector-curvature="0"
                     id="path5210"
                     style="fill:#231f20;fill-opacity:1;fill-rule:nonzero;stroke:none"
                     d="M 0,0 C 0,1.062 -0.059,2.508 -1.564,2.508 -2.833,2.508 -3.158,0.914 -3.158,0 L 0,0 Z m -3.158,-0.458 0,-0.118 c 0,-2.066 0.281,-3.674 2.184,-3.674 1.343,0 2.021,0.826 2.405,1.889 L 1.756,-2.479 C 1.121,-4.19 0.118,-4.707 -1.505,-4.707 c -2.214,0 -3.335,1.711 -3.335,3.792 0,1.992 1.284,3.792 3.438,3.792 1.889,0 3.173,-1.357 3.173,-3.335 l -4.929,0 z" /></g><g
                   transform="translate(126.3329,47.8446)"
                   id="g5212"><path
                     inkscape:connector-curvature="0"
                     id="path5214"
                     style="fill:#231f20;fill-opacity:1;fill-rule:nonzero;stroke:none"
                     d="m 0,0 c -0.885,-0.266 -1.166,-0.591 -1.166,-1.889 0,-0.9 0.163,-1.697 0.959,-1.697 1.284,0 1.742,1.623 1.742,2.627 l 0,1.416 L 0,0 Z M -0.088,0.398 C 0.517,0.546 0.974,0.679 1.535,0.87 l 0,0.62 c 0,1.018 -0.178,1.682 -1.151,1.682 -0.738,0 -1.24,-0.221 -1.24,-1.195 0,-0.576 -0.221,-0.767 -0.738,-0.767 -0.383,0 -0.678,0.102 -0.678,0.546 0,1.416 1.431,1.785 2.611,1.785 2.258,0 2.701,-0.93 2.701,-2.154 l 0,-3.748 c 0,-1.121 0.339,-1.136 1.165,-1.136 l 0,-0.369 -1.121,0 c -0.826,0 -1.402,0.074 -1.638,0.959 -0.575,-0.885 -1.299,-1.136 -2.272,-1.136 -1.535,0 -2.022,0.797 -2.022,2.14 0,1.224 0.635,1.799 1.874,2.094 l 0.886,0.207 z" /></g><g
                   transform="translate(132.4135,44.3475)"
                   id="g5216"><path
                     inkscape:connector-curvature="0"
                     id="path5218"
                     style="fill:#231f20;fill-opacity:1;fill-rule:nonzero;stroke:none"
                     d="m 0,0 0,6.492 -1.269,0 0,0.369 2.774,0 0,-1.387 0.029,0 c 0.458,1.004 1.343,1.564 2.553,1.564 1.446,0 2.169,-0.605 2.169,-2.081 l 0,-4.957 1.166,0 0,-0.369 -3.837,0 0,0.369 1.166,0 0,4.884 c 0,0.811 -0.147,1.623 -1.181,1.623 -1.372,0 -2.065,-1.299 -2.065,-2.671 l 0,-3.836 1.165,0 0,-0.369 -3.939,0 0,0.369 L 0,0 Z" /></g><g
                   transform="translate(145.9896,48.2869)"
                   id="g5220"><path
                     inkscape:connector-curvature="0"
                     id="path5222"
                     style="fill:#231f20;fill-opacity:1;fill-rule:nonzero;stroke:none"
                     d="m 0,0 c 0,2.184 -1.077,2.642 -1.741,2.642 -1.387,0 -1.668,-1.447 -1.668,-3.335 0,-2.111 0.472,-3.335 1.668,-3.335 1.49,0 1.741,1.534 1.741,2.818 L 0,0 Z m -0.044,-3.261 -0.03,0 c -0.324,-0.767 -1.121,-1.224 -2.036,-1.224 -2.036,0 -2.892,1.785 -2.892,3.792 0,2.714 1.225,3.792 2.789,3.792 0.974,0 1.696,-0.325 2.139,-1.254 l 0.03,0 0,4.027 -1.476,0 0,0.369 2.981,0 0,-10.18 1.21,0 0,-0.37 -2.715,0 0,1.048 z" /></g><g
                   transform="translate(157.3969,54.0711)"
                   id="g5224"><path
                     inkscape:connector-curvature="0"
                     id="path5226"
                     style="fill:#231f20;fill-opacity:1;fill-rule:nonzero;stroke:none"
                     d="m 0,0 -1.269,0 c -1.52,0 -2.081,-1.55 -2.14,-2.922 l -0.443,0 0,3.379 9.385,0 0,-3.379 -0.443,0 C 5.031,-1.55 4.456,0 2.951,0 l -1.269,0 0,-9.724 1.623,0 0,-0.369 -4.929,0 0,0.369 1.624,0 L 0,0 Z" /></g><g
                   transform="translate(167.7152,48.5086)"
                   id="g5228"><path
                     inkscape:connector-curvature="0"
                     id="path5230"
                     style="fill:#231f20;fill-opacity:1;fill-rule:nonzero;stroke:none"
                     d="M 0,0 C 0,1.062 -0.059,2.508 -1.564,2.508 -2.833,2.508 -3.158,0.914 -3.158,0 L 0,0 Z m -3.158,-0.458 0,-0.118 c 0,-2.066 0.281,-3.674 2.184,-3.674 1.343,0 2.021,0.826 2.405,1.889 L 1.756,-2.479 C 1.121,-4.19 0.118,-4.707 -1.505,-4.707 c -2.214,0 -3.335,1.711 -3.335,3.792 0,1.992 1.284,3.792 3.438,3.792 1.889,0 3.173,-1.357 3.173,-3.335 l -4.929,0 z" /></g><g
                   transform="translate(177.7347,46.2655)"
                   id="g5232"><path
                     inkscape:connector-curvature="0"
                     id="path5234"
                     style="fill:#231f20;fill-opacity:1;fill-rule:nonzero;stroke:none"
                     d="m 0,0 c -0.693,-1.947 -1.874,-2.464 -3.216,-2.464 -2.155,0 -3.438,1.8 -3.438,3.792 0,2.095 1.475,3.792 3.541,3.792 1.372,0 2.906,-0.811 2.906,-2.081 0,-0.59 -0.339,-0.811 -0.781,-0.811 -0.532,0 -0.723,0.369 -0.723,0.767 0,0.207 0.029,0.34 0.029,0.473 0,0.811 -0.502,1.283 -1.416,1.283 -1.461,0 -1.874,-1.49 -1.874,-3.423 0,-1.166 0.118,-3.335 2.183,-3.335 1.343,0 2.022,0.826 2.465,2.125 L 0,0 Z" /></g><g
                   transform="translate(179.4623,44.3475)"
                   id="g5236"><path
                     inkscape:connector-curvature="0"
                     id="path5238"
                     style="fill:#231f20;fill-opacity:1;fill-rule:nonzero;stroke:none"
                     d="m 0,0 0,9.812 -1.269,0 0,0.369 2.774,0 0,-4.707 0.029,0 c 0.458,1.004 1.343,1.564 2.553,1.564 1.446,0 2.169,-0.605 2.169,-2.081 l 0,-4.957 1.166,0 0,-0.369 -3.837,0 0,0.369 1.166,0 0,4.884 c 0,0.811 -0.147,1.623 -1.181,1.623 -1.372,0 -2.065,-1.299 -2.065,-2.671 l 0,-3.836 1.165,0 0,-0.369 -3.939,0 0,0.369 L 0,0 Z" /></g><g
                   transform="translate(188.7592,44.3475)"
                   id="g5240"><path
                     inkscape:connector-curvature="0"
                     id="path5242"
                     style="fill:#231f20;fill-opacity:1;fill-rule:nonzero;stroke:none"
                     d="m 0,0 0,6.492 -1.269,0 0,0.369 2.774,0 0,-1.387 0.029,0 c 0.458,1.004 1.343,1.564 2.553,1.564 1.446,0 2.169,-0.605 2.169,-2.081 l 0,-4.957 1.166,0 0,-0.369 -3.837,0 0,0.369 1.166,0 0,4.884 c 0,0.811 -0.147,1.623 -1.181,1.623 -1.372,0 -2.065,-1.299 -2.065,-2.671 l 0,-3.836 1.165,0 0,-0.369 -3.939,0 0,0.369 L 0,0 Z" /></g><g
                   transform="translate(200.7714,44.1698)"
                   id="g5244"><path
                     inkscape:connector-curvature="0"
                     id="path5246"
                     style="fill:#231f20;fill-opacity:1;fill-rule:nonzero;stroke:none"
                     d="M 0,0 C 1.741,0 1.756,1.874 1.756,3.424 1.756,4.973 1.741,6.847 0,6.847 -1.741,6.847 -1.756,4.973 -1.756,3.424 -1.756,1.874 -1.741,0 0,0 m 0,7.216 c 2.626,0 3.438,-2.302 3.438,-3.792 0,-1.49 -0.812,-3.792 -3.438,-3.792 -2.626,0 -3.438,2.302 -3.438,3.792 0,1.49 0.812,3.792 3.438,3.792" /></g><g
                   transform="translate(205.3168,54.5282)"
                   id="g5248"><path
                     inkscape:connector-curvature="0"
                     id="path5250"
                     style="fill:#231f20;fill-opacity:1;fill-rule:nonzero;stroke:none"
                     d="m 0,0 2.774,0 0,-10.181 1.269,0 0,-0.369 -4.043,0 0,0.369 1.269,0 0,9.812 L 0,-0.369 0,0 Z" /></g><g
                   transform="translate(213.9052,44.1698)"
                   id="g5252"><path
                     inkscape:connector-curvature="0"
                     id="path5254"
                     style="fill:#231f20;fill-opacity:1;fill-rule:nonzero;stroke:none"
                     d="M 0,0 C 1.741,0 1.756,1.874 1.756,3.424 1.756,4.973 1.741,6.847 0,6.847 -1.741,6.847 -1.756,4.973 -1.756,3.424 -1.756,1.874 -1.741,0 0,0 m 0,7.216 c 2.626,0 3.438,-2.302 3.438,-3.792 0,-1.49 -0.812,-3.792 -3.438,-3.792 -2.626,0 -3.438,2.302 -3.438,3.792 0,1.49 0.812,3.792 3.438,3.792" /></g><g
                   transform="translate(222.2719,47.1356)"
                   id="g5256"><path
                     inkscape:connector-curvature="0"
                     id="path5258"
                     style="fill:#231f20;fill-opacity:1;fill-rule:nonzero;stroke:none"
                     d="m 0,0 c 1.048,0 1.136,1.107 1.136,1.889 0,0.841 -0.014,1.992 -1.077,1.992 -1.077,0 -1.165,-0.885 -1.165,-1.8 C -1.106,1.299 -1.062,0 0,0 m -2.228,-4.411 c 0,-1.195 1.062,-1.535 2.567,-1.535 1.358,0 2.819,0.531 2.819,1.668 0,1.165 -0.738,1.342 -2.214,1.342 -2.065,0 -3.172,-0.103 -3.172,-1.475 M 1.933,3.645 C 2.184,3.984 2.508,4.25 3.025,4.25 3.468,4.25 3.91,3.955 3.91,3.395 3.91,3.025 3.763,2.745 3.423,2.745 2.641,2.745 3.143,3.719 2.626,3.719 2.45,3.719 2.213,3.453 2.184,3.276 2.435,2.863 2.553,2.479 2.553,1.992 c 0,-1.446 -1.107,-2.36 -2.509,-2.36 -0.605,0 -1.21,0.162 -1.711,0.457 -0.428,-0.029 -1.048,-0.428 -1.048,-0.93 0,-0.546 0.458,-0.649 1.284,-0.649 0.856,0 1.697,0.059 2.567,0.059 1.535,0 2.553,-0.59 2.553,-2.316 0,-2.036 -1.83,-2.656 -3.526,-2.656 -1.269,0 -3.454,0.324 -3.454,2.065 0,0.857 0.724,1.284 1.432,1.417 l 0,-0.015 0,0.03 c -0.9,0.206 -1.475,0.855 -1.475,1.696 0,0.871 0.605,1.402 1.328,1.668 -0.399,0.531 -0.517,0.915 -0.517,1.563 0,1.388 1.166,2.229 2.42,2.229 0.782,0 1.52,-0.147 2.036,-0.605" /></g><g
                   transform="translate(226.5521,51.2088)"
                   id="g5260"><path
                     inkscape:connector-curvature="0"
                     id="path5262"
                     style="fill:#231f20;fill-opacity:1;fill-rule:nonzero;stroke:none"
                     d="m 0,0 3.955,0 0,-0.369 -1.24,0 1.948,-4.796 0.029,0 1.476,4.796 -1.24,0 0,0.369 2.848,0 0,-0.369 -1.151,0 -2.302,-7.451 c -0.546,-1.786 -1.106,-2.657 -2.39,-2.657 -0.885,0 -1.372,0.605 -1.372,1.24 0,0.516 0.236,0.826 0.679,0.826 0.546,0 0.649,-0.384 0.649,-0.767 0,-0.384 0.059,-0.767 0.502,-0.767 0.442,0 0.959,0.398 1.357,1.814 L 4.014,-7.245 1.062,-0.369 0,-0.369 0,0 Z" /></g></g></g></g></g></g></g></g></svg>